<svg xmlns="http://www.w3.org/2000/svg" width="1474" height="604" viewBox="0 0 1474 604">
  <defs>
    <linearGradient id="iconlogo-a" x1="50%" x2="50%" y1="0%" y2="100%">
      <stop offset="0%" stop-color="#3D9AA5"/>
      <stop offset="100%" stop-color="#0F285F"/>
    </linearGradient>
    <linearGradient id="iconlogo-b" x1="50%" x2="50%" y1="0%" y2="100%">
      <stop offset="0%" stop-color="#3D9AA5"/>
      <stop offset="100%" stop-color="#0F285F"/>
    </linearGradient>
  </defs>
  <g fill="none" fill-rule="evenodd" transform="translate(1.342 1.385)">
    <path fill="url(#iconlogo-a)" fill-rule="nonzero" stroke="url(#iconlogo-b)" d="M249.874281,437.850199 C245.651445,436.925091 240.736341,433.97845 238.174948,430.894757 C233.917499,425.721005 232.256055,418.52572 233.917499,412.187017 C234.921288,408.315269 236.444278,405.676998 239.455645,402.696094 C242.536238,399.646664 243.713094,398.961399 250.428096,396.357391 C286.356816,382.515034 315.259014,360.655074 338.173092,330.092246 C356.72588,305.319909 369.809749,274.243133 374.240266,244.26278 C375.970936,232.818851 376.663204,215.892801 375.867096,205.37398 C371.95578,153.328088 346.895671,107.792216 305.082671,76.715439 C280.680217,58.6244378 251.743405,46.9406661 221.975872,43.1717075 C207.576693,41.3557547 190.200761,41.5955976 176.113103,43.8569727 C135.303892,50.3327289 99.5136254,71.6444765 74.3496759,104.46868 C58.0813729,125.677637 47.385829,151.169503 43.7514209,177.449423 C41.7092297,192.216888 42.2284309,209.588361 45.1013439,224.08172 C53.5816295,266.533899 80.9262239,302.030636 120.281672,321.663484 C134.57701,328.790242 148.318534,332.936097 165.72908,335.300262 C170.886478,335.985527 190.719962,335.882737 196.015814,335.128945 C230.248477,330.195036 257.489232,314.673779 278.084211,288.291069 C289.610477,273.523604 298.159989,254.164862 301.171356,235.868281 C303.075093,224.458616 303.075093,211.095944 301.205969,200.303018 C296.221638,171.453353 280.091789,147.023648 255.516267,131.022706 C227.583245,112.828915 193.835169,109.676695 165.036812,122.593944 C142.088121,132.838659 124.400668,153.910564 118.13564,178.306005 C116.439583,184.953077 116.093449,187.933981 116.093449,196.1229 C116.093449,204.585925 116.439583,207.566829 118.343321,214.590797 C124.712188,238.369499 143.818791,256.803133 167.598204,262.079675 C191.412231,267.356217 214.741669,256.905923 225.021852,236.38223 C230.110024,226.171779 230.906132,215.687221 227.306337,205.922192 C223.637316,195.985847 214.326308,188.310877 204.253806,186.87182 C201.969321,186.56345 197.884938,186.76903 197.954165,187.180189 C197.954165,187.282979 199.200248,187.968244 200.723238,188.687772 C204.530713,190.503725 207.74976,193.690208 209.653498,197.561957 C211.626462,201.536495 212.180277,203.832133 212.353344,209.005886 C212.526411,213.220267 212.457184,213.699952 211.488009,217.092015 C208.684323,226.822781 200.723238,233.743959 189.7854,235.902545 C186.324059,236.58781 179.02063,236.48502 175.490062,235.731228 C169.951916,234.566278 165.348332,232.647535 161.402404,229.872211 C158.841011,228.090521 154.202814,223.362192 152.33369,220.621131 C140.945878,203.969186 143.472657,180.910012 158.633331,163.470013 C166.663642,154.218933 178.951403,147.640387 192.208339,145.413275 C196.154268,144.72801 197.504191,144.659483 203.457698,144.8308 C212.457184,145.104906 217.822263,146.20133 226.441002,149.593393 C240.32098,155.041251 253.335622,166.074021 261.22748,179.09406 C266.731012,188.13956 270.434647,199.206593 271.646116,210.136573 C272.546065,218.154176 271.68073,229.700895 269.603925,237.855551 C262.923537,263.690049 243.955388,286.063957 219.379866,297.062464 C202.038548,304.80596 182.758878,307.272915 163.652275,304.189222 C141.707373,300.625843 120.420125,289.387493 104.221049,272.769812 C87.2258647,255.364076 77.0149085,233.469853 73.9689284,207.943725 C73.3805004,203.283921 73.3805004,189.304511 73.934315,184.644708 C76.8418415,160.317793 85.8067148,139.006046 101.175069,120.058463 C122.704611,93.4701731 153.85668,76.852492 188.746998,73.289113 C197.815712,72.364005 211.384169,72.6723743 220.93747,74.0086415 C256.416216,78.9768142 289.956611,98.0957132 312.870689,126.431429 C319.758757,134.894454 324.05082,141.507264 329.104378,151.409346 C338.069251,168.917872 342.984356,186.289344 344.715026,206.333351 C345.303454,213.35732 344.922707,229.666631 344.022758,236.38223 C339.799922,267.59606 327.719842,294.938142 307.332543,319.436372 C300.271407,327.933661 288.814368,338.658061 279.053386,345.921872 C240.286366,374.874327 188.297024,385.050515 139.595955,373.263954 C97.6445013,363.087766 60.8158324,338.658061 35.0288414,303.880852 C22.0141991,286.338063 11.8378563,265.129105 6.02280335,243.406199 C-1.69598722,214.556534 -2.00750792,182.931545 5.15746808,153.122509 C16.0606924,107.51811 43.5783539,66.4707243 81.9646263,38.4433777 C109.239994,18.5364236 141.222785,5.85901745 175.074701,1.5418467 C185.32027,0.20557956 189.300813,1.13686838e-13 201.55396,1.13686838e-13 C219.829841,1.13686838e-13 232.429122,1.43905692 249.666601,5.48212159 C298.402283,16.9603137 341.8075,44.7135542 373.06341,84.4246725 C396.842823,114.644868 412.211177,151.614925 416.987828,190.126829 C418.268524,200.337281 418.580045,205.408243 418.580045,217.537437 C418.580045,232.750325 417.645482,243.406199 415.08409,257.282819 C400.857978,334.477944 347.934073,400.640298 275.626659,431.580022 C270.400034,433.841397 263.131217,436.650985 260.223691,437.576093 C257.904592,438.295621 252.5049,438.432674 249.874281,437.850199 Z" transform="scale(-1 1) rotate(-37 77.428 1019.595)"/>
    <text fill="#222023" font-family="HiraginoSansCNS-W3, Hiragino Sans CNS" font-size="160" font-weight="300" letter-spacing="8">
      <tspan x="597.658" y="238.615">Katharina </tspan> <tspan x="597.658" y="398.615">Rische</tspan>
    </text>
  </g>
</svg>
